<mxfile host="Electron" modified="2024-04-22T12:53:25.828Z" agent="Mozilla/5.0 (Macintosh; Intel Mac OS X 10_15_7) AppleWebKit/537.36 (KHTML, like Gecko) draw.io/23.1.5 Chrome/120.0.6099.109 Electron/28.1.0 Safari/537.36" etag="fS89MO0ULo0fxCOG9Z5d" version="23.1.5" type="device">
  <diagram name="第 1 页" id="4Z94bTw7BgrFLxDny_ne">
    <mxGraphModel dx="1045" dy="839" grid="1" gridSize="10" guides="1" tooltips="1" connect="1" arrows="1" fold="1" page="1" pageScale="1" pageWidth="827" pageHeight="1169" math="0" shadow="0">
      <root>
        <mxCell id="0" />
        <mxCell id="1" parent="0" />
        <mxCell id="ESD56d5KjlzMmiU12UbV-1" value="&lt;font style=&quot;font-size: 16px;&quot;&gt;launcher&lt;/font&gt;" style="rounded=0;whiteSpace=wrap;html=1;fillColor=#6d8764;fontColor=#ffffff;strokeColor=#3A5431;" vertex="1" parent="1">
          <mxGeometry x="70" y="240" width="120" height="60" as="geometry" />
        </mxCell>
        <mxCell id="ESD56d5KjlzMmiU12UbV-2" value="&lt;font style=&quot;font-size: 16px;&quot;&gt;trigger&lt;/font&gt;" style="rounded=0;whiteSpace=wrap;html=1;fillColor=#6d8764;fontColor=#ffffff;strokeColor=#3A5431;" vertex="1" parent="1">
          <mxGeometry x="240" y="240" width="120" height="60" as="geometry" />
        </mxCell>
        <mxCell id="ESD56d5KjlzMmiU12UbV-3" value="&lt;font style=&quot;font-size: 16px;&quot;&gt;application&lt;/font&gt;" style="rounded=0;whiteSpace=wrap;html=1;fillColor=#6d8764;fontColor=#ffffff;strokeColor=#3A5431;" vertex="1" parent="1">
          <mxGeometry x="400" y="240" width="120" height="60" as="geometry" />
        </mxCell>
        <mxCell id="ESD56d5KjlzMmiU12UbV-4" value="&lt;font style=&quot;font-size: 16px;&quot;&gt;infrastructure&lt;/font&gt;" style="rounded=0;whiteSpace=wrap;html=1;fillColor=#6d8764;fontColor=#ffffff;strokeColor=#3A5431;" vertex="1" parent="1">
          <mxGeometry x="570" y="240" width="120" height="60" as="geometry" />
        </mxCell>
        <mxCell id="ESD56d5KjlzMmiU12UbV-6" value="api" style="rounded=0;whiteSpace=wrap;html=1;fillColor=#6d8764;fontColor=#ffffff;strokeColor=#3A5431;" vertex="1" parent="1">
          <mxGeometry x="740" y="320" width="120" height="60" as="geometry" />
        </mxCell>
        <mxCell id="ESD56d5KjlzMmiU12UbV-7" value="domain" style="rounded=0;whiteSpace=wrap;html=1;fillColor=#6d8764;fontColor=#ffffff;strokeColor=#3A5431;" vertex="1" parent="1">
          <mxGeometry x="730" y="150" width="120" height="60" as="geometry" />
        </mxCell>
        <mxCell id="ESD56d5KjlzMmiU12UbV-8" value="common" style="rounded=0;whiteSpace=wrap;html=1;fillColor=#6d8764;fontColor=#ffffff;strokeColor=#3A5431;" vertex="1" parent="1">
          <mxGeometry x="920" y="150" width="120" height="60" as="geometry" />
        </mxCell>
        <mxCell id="ESD56d5KjlzMmiU12UbV-9" value="" style="shape=flexArrow;endArrow=classic;html=1;rounded=0;entryX=0;entryY=0.5;entryDx=0;entryDy=0;" edge="1" parent="1" target="ESD56d5KjlzMmiU12UbV-2">
          <mxGeometry width="50" height="50" relative="1" as="geometry">
            <mxPoint x="190" y="270" as="sourcePoint" />
            <mxPoint x="240" y="220" as="targetPoint" />
          </mxGeometry>
        </mxCell>
        <mxCell id="ESD56d5KjlzMmiU12UbV-12" value="" style="shape=flexArrow;endArrow=classic;html=1;rounded=0;exitX=1;exitY=0.5;exitDx=0;exitDy=0;entryX=0;entryY=0.5;entryDx=0;entryDy=0;" edge="1" parent="1" source="ESD56d5KjlzMmiU12UbV-2" target="ESD56d5KjlzMmiU12UbV-3">
          <mxGeometry width="50" height="50" relative="1" as="geometry">
            <mxPoint x="360" y="280" as="sourcePoint" />
            <mxPoint x="410" y="230" as="targetPoint" />
          </mxGeometry>
        </mxCell>
        <mxCell id="ESD56d5KjlzMmiU12UbV-13" value="" style="shape=flexArrow;endArrow=classic;html=1;rounded=0;entryX=0;entryY=0.5;entryDx=0;entryDy=0;" edge="1" parent="1" source="ESD56d5KjlzMmiU12UbV-3" target="ESD56d5KjlzMmiU12UbV-4">
          <mxGeometry width="50" height="50" relative="1" as="geometry">
            <mxPoint x="520" y="270" as="sourcePoint" />
            <mxPoint x="410" y="280" as="targetPoint" />
          </mxGeometry>
        </mxCell>
        <mxCell id="ESD56d5KjlzMmiU12UbV-14" value="" style="shape=flexArrow;endArrow=classic;html=1;rounded=0;" edge="1" parent="1" source="ESD56d5KjlzMmiU12UbV-4" target="ESD56d5KjlzMmiU12UbV-7">
          <mxGeometry width="50" height="50" relative="1" as="geometry">
            <mxPoint x="530" y="280" as="sourcePoint" />
            <mxPoint x="580" y="280" as="targetPoint" />
          </mxGeometry>
        </mxCell>
        <mxCell id="ESD56d5KjlzMmiU12UbV-15" value="" style="shape=flexArrow;endArrow=classic;html=1;rounded=0;exitX=1;exitY=1;exitDx=0;exitDy=0;" edge="1" parent="1" source="ESD56d5KjlzMmiU12UbV-4" target="ESD56d5KjlzMmiU12UbV-6">
          <mxGeometry width="50" height="50" relative="1" as="geometry">
            <mxPoint x="693" y="250" as="sourcePoint" />
            <mxPoint x="747" y="220" as="targetPoint" />
          </mxGeometry>
        </mxCell>
        <mxCell id="ESD56d5KjlzMmiU12UbV-16" value="" style="shape=flexArrow;endArrow=classic;html=1;rounded=0;" edge="1" parent="1" source="ESD56d5KjlzMmiU12UbV-7" target="ESD56d5KjlzMmiU12UbV-8">
          <mxGeometry width="50" height="50" relative="1" as="geometry">
            <mxPoint x="693" y="250" as="sourcePoint" />
            <mxPoint x="747" y="220" as="targetPoint" />
          </mxGeometry>
        </mxCell>
      </root>
    </mxGraphModel>
  </diagram>
</mxfile>
